# xmcd
#
# Track frame offsets: 
#        150
#        1739
#        18629
#        37331
#        57930
#        87111
#        102485
#        124230
#        151133
#        177253
#        196055
#        221589
#
# Disc length: 3410 seconds
#
# Revision: 0
# Processed by: cddbd v1.5.2PL0 Copyright (c) Steve Scherf et al.
# Submitted via: ExactAudioCopyFreeDBPlugin 1.0
#
DISCID=9b0d500c
DTITLE=Various Artist - Nova 25 ans - 1997
DYEAR=1900
DGENRE=
TTITLE0=Jingle
TTITLE1=Bobby Womack - Across 110th Street
TTITLE2=Howie B - Duet
TTITLE3=Jimi Tenor - Can't Stay With You Baby
TTITLE4=Coldcut - I'm Wild About That Thing
TTITLE5=Saï Saï - La Rime Paie
TTITLE6=Pressure Drop - Sound Of Time
TTITLE7=Orchestre National de Barbès - Salam
TTITLE8=Leon Parker - Ray Of Light
TTITLE9=Blaze - Lovelee Dae (20:20 Vision Accapella)
TTITLE10=Roni Size - Heroes
TTITLE11=Serge Gainsbourg - Cargo Culte
EXTD=
EXTT0=
EXTT1=
EXTT2=
EXTT3=
EXTT4=
EXTT5=
EXTT6=
EXTT7=
EXTT8=
EXTT9=
EXTT10=
EXTT11=
PLAYORDER=
